<?xml version="1.0" encoding="utf-8"?>
<!-- Generator: Adobe Illustrator 16.0.4, SVG Export Plug-In . SVG Version: 6.00 Build 0)  -->
<!DOCTYPE svg PUBLIC "-//W3C//DTD SVG 1.1//EN" "http://www.w3.org/Graphics/SVG/1.1/DTD/svg11.dtd">
<svg version="1.1" id="Art" xmlns="http://www.w3.org/2000/svg" xmlns:xlink="http://www.w3.org/1999/xlink" x="0px" y="0px"
	 width="120.724px" height="120.647px" viewBox="4.643 2.033 120.724 120.647" enable-background="new 4.643 2.033 120.724 120.647"
	 xml:space="preserve">
<g>
	<circle fill="#F4F4F4" cx="65.043" cy="62.357" r="60.324"/>
</g>
<rect x="3.021" y="2.021" fill="none" width="124" height="124"/>
<g>
	<path fill="#666662" d="M66.073,89.763c-12.491,0-22.654-1.818-22.654-4.053l0.042-0.561c0.076-1.067,0.154-2.17,0.431-3.224
		c0.12-0.454,0.248-1.032,0.388-1.663c0.375-1.686,0.841-3.783,1.45-4.85c1.129-1.936,2.454-2.738,4.504-3.541
		c0.559-0.213,1.056-0.521,1.537-0.821c0.378-0.235,0.77-0.478,1.179-0.665c1.063-0.068,1.645-0.269,2.613-0.716
		c0.444-0.2,0.881-0.215,1.345-0.231c0.213-0.006,0.432-0.015,0.661-0.041c0.891-0.078,1.051-0.42,1.341-1.041
		c0.066-0.146,0.143-0.307,0.237-0.487c0.878-1.632,0.965-4.689,0.451-6.133l-0.172-0.489c-0.369-1.068-0.875-2.531-1.726-3.186
		c-0.186-0.143-0.371-0.268-0.549-0.389c-0.678-0.458-1.214-0.821-1.196-1.769c-0.204-0.222-0.225-0.43-0.248-0.67
		c-0.019-0.195-0.04-0.416-0.152-0.633c-0.063-0.12-0.198-0.254-0.342-0.396c-0.13-0.129-0.264-0.262-0.314-0.361
		c-0.199-0.376-0.35-0.632-0.462-0.825c-0.333-0.567-0.333-0.567-0.319-1.556l0.008-0.814v-4.656
		c0.158-0.405,0.341-0.989,0.511-1.53c0.153-0.491,0.296-0.946,0.402-1.22l0.005-1.162c0.899-1.929,3.857-4.721,5.964-5.6
		c0.132-0.057,0.292-0.083,0.505-0.083c0.148,0,0.304,0.012,0.462,0.025c0.167,0.013,0.337,0.026,0.503,0.026
		c0.245,0,0.438-0.029,0.61-0.09c0.187-0.068,0.343-0.133,0.481-0.19c0.351-0.144,0.582-0.239,0.896-0.239
		c0.239,0,0.526,0.055,0.93,0.177l3.428-0.131c0.199,0.055,0.382,0.201,0.559,0.342c0.15,0.12,0.291,0.232,0.451,0.287
		c0.438-0.032,0.827-0.071,1.223-0.118c0.15,0.053,1.645,0.712,1.902,0.871c2.064,1.244,3.238,3.939,4.273,6.317
		c0.182,0.417,0.358,0.826,0.537,1.217c0.336,0.733,0.27,1.939,0.203,3.105c-0.053,0.954-0.107,1.941,0.062,2.671
		c0.075,0.36,0.172,0.434,0.265,0.478c0.02,0.044-0.053,0.34-0.14,0.693c-0.183,0.744-0.448,1.35-0.706,1.936
		c-0.402,0.919-0.784,1.788-0.75,3.014c-0.008-0.004-0.018-0.006-0.027-0.006c-0.061,0-0.175,0.051-0.298,0.106
		c-0.31,0.138-0.657,0.295-0.819,0.467c-0.283,0.451-0.459,0.951-0.631,1.433c-0.191,0.544-0.373,1.058-0.681,1.476
		c-0.22,0.309-0.493,0.6-0.759,0.881c-0.295,0.315-0.603,0.64-0.829,0.988c-0.281,0.419-0.136,1.402,0.005,2.352
		c0.078,0.531,0.152,1.032,0.125,1.315c-0.16,1.838,0.363,2.9,1.754,3.555c0.842,0.391,1.76,0.562,2.648,0.729
		c0.515,0.097,1.047,0.197,1.555,0.338c1.007,0.275,2.146,0.587,3.238,1.124c0.453,0.227,0.961,0.389,1.451,0.546
		c0.619,0.199,1.26,0.404,1.812,0.742c1.312,0.808,2.361,2.97,3.12,6.427l0.044,0.227c0.044,0.221,0.086,0.436,0.129,0.625
		c0.17,0.871,0.33,4.139,0.188,5.587C88.728,87.944,78.563,89.763,66.073,89.763z"/>
</g>
<g>
	<path fill="#FFFFFF" d="M65.043,122.935c-33.305,0-60.4-27.097-60.4-60.4c0-33.304,27.095-60.4,60.4-60.4
		c33.306,0,60.399,27.095,60.399,60.4C125.442,95.839,98.349,122.935,65.043,122.935z M65.043,8.933
		c-29.555,0-53.6,24.045-53.6,53.6c0,29.555,24.045,53.6,53.6,53.6c29.556,0,53.601-24.045,53.601-53.6
		C118.644,32.978,94.599,8.933,65.043,8.933z"/>
</g>
<g>
	<path fill="#FFFFFF" d="M66.188,87.938c-0.523,0-0.988-0.155-1.38-0.461c-0.387-0.305-0.575-0.719-0.575-1.266
		c0-0.484,0.185-0.882,0.563-1.214c0.375-0.331,0.844-0.499,1.393-0.499c0.539,0,0.998,0.167,1.362,0.498
		c0.369,0.333,0.55,0.729,0.55,1.215c0,0.541-0.188,0.954-0.569,1.262C67.144,87.782,66.692,87.938,66.188,87.938z M66.085,83.019
		c-0.489,0-0.906-0.146-1.239-0.434c-0.333-0.286-0.495-0.705-0.495-1.281c0-0.727,0.128-1.369,0.379-1.91
		c0.254-0.539,0.593-1.017,1.007-1.418c0.424-0.412,1.003-0.908,1.721-1.475c0.637-0.503,1.1-0.883,1.381-1.137
		c0.293-0.266,0.539-0.559,0.732-0.874c0.203-0.324,0.305-0.687,0.305-1.074c0-0.746-0.311-1.38-0.922-1.886
		c-0.604-0.506-1.396-0.762-2.35-0.762c-1.114,0-1.948,0.26-2.48,0.772c-0.523,0.502-0.974,1.253-1.336,2.229
		c-0.326,0.978-0.924,1.451-1.826,1.451c-0.53,0-0.98-0.169-1.34-0.504c-0.364-0.334-0.541-0.685-0.541-1.072
		c0-0.826,0.3-1.676,0.891-2.525c0.588-0.852,1.467-1.57,2.613-2.135c1.144-0.562,2.496-0.848,4.021-0.848
		c1.418,0,2.688,0.239,3.773,0.709c1.079,0.471,1.926,1.115,2.514,1.92c0.584,0.799,0.881,1.682,0.881,2.625
		c0,0.74-0.17,1.396-0.502,1.944c-0.328,0.552-0.729,1.043-1.198,1.459c-0.468,0.409-1.32,1.115-2.537,2.097
		c-0.341,0.281-0.613,0.527-0.819,0.739c-0.213,0.22-0.367,0.415-0.471,0.597c-0.1,0.178-0.18,0.359-0.238,0.543
		c-0.055,0.177-0.14,0.484-0.246,0.927C67.577,82.588,67.028,83.019,66.085,83.019z"/>
</g>
</svg>
