<?xml version="1.0" encoding="utf-8"?>
<!-- Generator: Adobe Illustrator 18.1.1, SVG Export Plug-In . SVG Version: 6.00 Build 0)  -->
<svg version="1.1" xmlns="http://www.w3.org/2000/svg" xmlns:xlink="http://www.w3.org/1999/xlink" x="0px" y="0px"
	 viewBox="0 0 275 267" enable-background="new 0 0 275 267" xml:space="preserve">
<symbol  id="Arrow_Mini" viewBox="0 0 10 10">
	<g>
		<path fill="#FFFFFF" d="M5,0.8c0-0.4,0.2-0.5,0.5-0.2l3.9,3.9c0.3,0.3,0.3,0.8,0,1.1L5.5,9.5C5.2,9.8,5,9.7,5,9.2V0.8z"/>
	</g>
	<g>
		<path fill="#FFFFFF" d="M6,3.7C6,3.3,5.7,3,5.3,3H1.7C1.3,3,1,3.3,1,3.7v2.7C1,6.7,1.3,7,1.7,7h3.7C5.7,7,6,6.7,6,6.3V3.7z"/>
	</g>
	<polygon fill="none" points="0,10 10,10 10,0 0,0 	"/>
	<polygon display="none" fill="none" points="0,10 10,10 10,0 0,0 	"/>
</symbol>
<symbol  id="Check_Small" viewBox="0 0 14 11">
	<g>
		<path fill="#FFFFFF" d="M1.2,4C0.9,4.3,0.9,4.7,1.2,5L2,5.8c0.3,0.3,0.8,0.3,1.1,0l1.4-1.4c0.3-0.3,0.8-0.3,1.1,0l4.9,4.9
			c0.3,0.3,0.8,0.3,1.1,0l0.8-0.8c0.3-0.3,0.3-0.8,0-1.1L5.5,0.7c-0.3-0.3-0.8-0.3-1.1,0L1.2,4z"/>
	</g>
	<polygon fill="none" points="0,11 14,11 14,0 0,0 	"/>
</symbol>
<symbol  id="Exclamation" viewBox="0 0 5 12">
	<polygon fill="none" points="0,0 5,0 5,12 0,12 	"/>
	<g>
		<path fill-rule="evenodd" clip-rule="evenodd" fill="#FFFFFF" d="M2.5,0.2c-0.7,0-1.2,0.5-1.3,1.1c0,0.1,0,0.1,0,0.2
			c0,0.7,0.6,1.3,1.3,1.3s1.3-0.6,1.3-1.3c0-0.1,0-0.1,0-0.2C3.7,0.7,3.2,0.2,2.5,0.2z"/>
	</g>
	<g>
		<path fill-rule="evenodd" clip-rule="evenodd" fill="#FFFFFF" d="M2.5,3.8c-0.6,0-1.2,0.5-1.3,1.1L0.7,9.5c0,0.1,0,0.2,0,0.3
			c0,1,0.8,1.8,1.8,1.8s1.8-0.8,1.8-1.8c0-0.1,0-0.2,0-0.3L3.8,4.9C3.7,4.2,3.1,3.8,2.5,3.8z"/>
	</g>
	<polygon display="none" fill="none" points="0,12 5,12 5,0 0,0 	"/>
</symbol>
<symbol  id="Gender_Female__x28_XL_x29_" viewBox="0 0 48 48">
	<g>
		<path fill="#E2427C" d="M24,0.1C10.8,0.1,0.1,10.8,0.1,24S10.8,47.9,24,47.9S47.9,37.2,47.9,24S37.2,0.1,24,0.1z"/>
	</g>
	<polygon fill="none" points="48,0 0,0 0,48 48,48 	"/>
	<g>
		<path fill="#FFFFFF" d="M23.9,10c-8.9,0-13.5,1.4-13.5,2.6c0,0.1,0.5,2,0.8,3.2c0.2,1.1,1.3,2.2,2.2,2.6c1,0.4,6.4,2.9,6.4,2.9
			l0.2,0v0.1l-0.2,0.1c-5.2,1.1-6.9,4.1-7.2,4.7c0.4,0.1,1.7,0.4,2.6,1.7c0.9,1.3,1.2,3,0.8,5.3c-0.1,0.4-0.1,0.9-0.1,1.3
			c0,1.5,0.5,2.9,1.6,4c1.5,1.5,3.8,2.4,6.5,2.4c2.7,0,5-0.8,6.5-2.4c1.1-1.1,1.7-2.5,1.6-4c0-0.5,0-0.9-0.1-1.4
			c-0.4-2.2-0.1-4,0.8-5.3c0.9-1.3,2.2-1.6,2.6-1.7c-0.3-0.6-2.1-3.6-7.3-4.7l-0.2,0v-0.1l0.2-0.1c0.1,0,5.4-2.5,6.3-2.9
			c0.9-0.4,2.1-1.6,2.2-2.6c0.3-1.2,0.8-3.1,0.8-3.2c0-1.3-4.6-2.6-13.5-2.6H23.9z"/>
	</g>
	<polygon display="none" fill="none" points="0,48 48,48 48,0 0,0 	"/>
</symbol>
<symbol  id="Lock__x28_XS_x29_" viewBox="0 0 9 11">
	<g>
		<path fill="#FFFFFF" d="M8,5.3C8,5.7,7.7,6,7.3,6H1.7C1.3,6,1,5.7,1,5.3V1.7C1,1.3,1.3,1,1.7,1h5.7C7.7,1,8,1.3,8,1.7V5.3z"/>
	</g>
	<path fill="none" stroke="#FFFFFF" stroke-miterlimit="10" d="M2.5,7.6c0,1.1,0.9,2,2,2s2-0.9,2-2V4.5h-4V7.6z"/>
	<polygon fill="none" points="0,11 9,11 9,0 0,0 	"/>
	<polygon display="none" fill="none" points="0,11 9,11 9,0 0,0 	"/>
</symbol>
<symbol  id="Rope__x28_part_of_Life_Saver_x29_" viewBox="-2.5 -7.5 7.8 19.5">
	<path fill="none" stroke="#333331" stroke-width="0.8" stroke-linecap="round" stroke-miterlimit="10" d="M2.1-7.1
		c2.4,2.5-1.6,0.3-2.9,1.6C-3.6-2.5-1.7,6.9,3.4,8.2c1.1,0.3,1.1,2,1.1,2.6c0.1,1.5-3.2,0.8-2.4-0.6c0.8-1.5,1.8-0.8,2.8-0.7"/>
</symbol>
<symbol  id="Rope_6" viewBox="-2.5 -7.2 6.2 15.8">
	<path fill="none" stroke="#333331" stroke-width="0.8" stroke-linecap="round" stroke-miterlimit="10" d="M2.3-6.8
		c2,2.2-1.9,0.1-3.1,1.4C-3.6-2.5-1.7,6.9,3.4,8.2"/>
</symbol>
<symbol  id="Temple_White__x28_M_x29_" viewBox="0 0 15 20">
	<polygon fill="none" points="15,20 0,20 0,0 15,0 	"/>
	<g>
		<path fill="#FFFFFF" d="M9,6.9C9,6.4,8.6,6,8.1,6H6.9C6.4,6,6,6.4,6,6.9v7.2C6,14.6,6.4,15,6.9,15h1.2C8.6,15,9,14.6,9,14.1V6.9z"
			/>
	</g>
	<g>
		<path fill="#FFFFFF" d="M4,5.9C4,5.4,3.6,5,3.1,5H1.9C1.4,5,1,5.4,1,5.9v4.2C1,10.6,1.4,11,1.9,11h1.2C3.6,11,4,10.6,4,10.1V5.9z"
			/>
	</g>
	<g>
		<path fill="#FFFFFF" d="M14,5.9C14,5.4,13.6,5,13.1,5h-1.2C11.4,5,11,5.4,11,5.9v4.2c0,0.5,0.4,0.9,0.9,0.9h1.2
			c0.5,0,0.9-0.4,0.9-0.9V5.9z"/>
	</g>
	<g>
		<path fill="#FFFFFF" d="M10,5.9C10,5.4,9.6,5,9.1,5H5.9C5.4,5,5,5.4,5,5.9v5.2C5,11.6,5.4,12,5.9,12h3.2c0.5,0,0.9-0.4,0.9-0.9
			V5.9z"/>
	</g>
	<g>
		<path fill="#FFFFFF" d="M3,10c0-0.5-0.2-1-0.5-1S2,9.5,2,10v3c0,0.5,0.2,1,0.5,1S3,13.5,3,13V10z"/>
	</g>
	<g>
		<path fill="#FFFFFF" d="M13,10c0-0.5-0.2-1-0.5-1S12,9.5,12,10v3c0,0.5,0.2,1,0.5,1s0.5-0.5,0.5-1V10z"/>
	</g>
	<g>
		<path fill="#FFFFFF" d="M8,14c0-0.5-0.2-1-0.5-1S7,13.4,7,14v5c0,0.5,0.2,1,0.5,1S8,19.5,8,19V14z"/>
	</g>
	<g>
		<path fill="#FFFFFF" d="M5,0v6.5C5,7.3,6,8,7,8h1c1,0,2-0.7,2-1.5V0H5z"/>
	</g>
	<g>
		<path fill="#FFFFFF" d="M11,0v6.5c0,0.8,1,1.4,2,1.4S15,7,15,6V1c0-0.5-0.5-1-1-1H11z"/>
	</g>
	<g>
		<path fill="#FFFFFF" d="M1,0C0.5,0,0,0.5,0,1v5c0,1,1,1.9,2,1.9c1,0,2-0.6,2-1.4V0H1z"/>
	</g>
	<polygon display="none" fill="none" points="0,20 15,20 15,0 0,0 	"/>
</symbol>
<g id="Background">
	<rect x="-809" y="-534" fill="none" width="2575" height="1711"/>
</g>
<g id="Labels">
</g>
<g id="Art">
	<g id="Arrow_Up__x28_XL_x29_">
	</g>
	
		<use xlink:href="#Gender_Female__x28_XL_x29_"  width="48" height="48" id="XMLID_1_" transform="matrix(5.2708 0 0 -5.2708 11 260)" overflow="visible"/>
</g>
</svg>
