<?xml version="1.0" encoding="UTF-8" standalone="no"?>
<svg width="51px" height="51px" viewBox="0 0 51 51" version="1.1" xmlns="http://www.w3.org/2000/svg" xmlns:xlink="http://www.w3.org/1999/xlink" xmlns:sketch="http://www.bohemiancoding.com/sketch/ns">
    <!-- Generator: Sketch 3.3 (11970) - http://www.bohemiancoding.com/sketch -->
    <title>person-icon</title>
    <desc>Created with Sketch.</desc>
    <defs>
        <circle id="path-1" cx="24.6666667" cy="24.2" r="24"></circle>
    </defs>
    <g id="Page-1" stroke="none" stroke-width="1" fill="none" fill-rule="evenodd" sketch:type="MSPage">
        <g id="person-icon" sketch:type="MSLayerGroup" transform="translate(1.000000, 1.000000)">
            <g id="Page-1">
                <g id="Screen-Shot-2015-01-21-at-9.41-+-Oval-7-Copy-2">
                    <g id="mask-2" fill="#FFFFFF" sketch:type="MSShapeGroup">
                        <circle id="path-1" cx="24.6666667" cy="24.2" r="24"></circle>
                    </g>
                    <g id="Oval-6" stroke="#B5AF9C" stroke-width="2" fill="#FFFFFF" sketch:type="MSShapeGroup">
                        <circle id="path-1" cx="24.6666667" cy="24.2" r="24"></circle>
                    </g>
                    <g id="Path-2-Clipped">
                        <mask id="mask-2" sketch:name="path-1" fill="white">
                            <use xlink:href="#path-1"></use>
                        </mask>
                        <g id="path-1"></g>
                        <path d="M20.190767,6.05323027 C19.9718212,6.05323027 19.8023148,6.08289389 19.6596469,6.14504624 C17.7329241,6.95161422 15.0250592,9.50692331 14.1944778,11.3022787 L14.1817649,12.3729941 C14.1012493,12.5566261 13.9811823,12.9380155 13.8512274,13.3533062 C13.6930214,13.8533501 13.5192773,14.4056585 13.3638965,14.8110613 L13.3554211,19.0289457 L13.3483584,19.7606484 C13.3356454,20.6830457 13.3412956,20.7112968 13.6661829,21.2607801 C13.7650616,21.431699 13.8992542,21.6577076 14.0772359,21.9896576 C14.1365632,22.1083121 14.2665181,22.238267 14.4035357,22.3752847 C14.5123024,22.4840513 14.6253066,22.595643 14.6690958,22.6733334 C14.7467862,22.8230641 14.7609118,22.9826826 14.7764498,23.1507765 C14.7990507,23.3909106 14.8216516,23.6409325 15.0462475,23.8401025 C14.9826826,24.698935 15.5590044,25.0873872 16.17064,25.4998528 C16.3260209,25.6057943 16.4884646,25.7145609 16.6509082,25.8388656 C17.36001,26.3812861 17.7979015,27.6525841 18.1185512,28.5792192 L18.2767571,29.0298237 C18.7217115,30.268633 18.631308,32.96661 17.8897175,34.3466747 C17.7993141,34.5161811 17.7272739,34.6687368 17.663709,34.8029294 C17.4080368,35.3396997 17.3148083,35.5416948 16.6424329,35.5996095 C16.4418503,35.6222104 16.2539807,35.6278606 16.0689362,35.6349233 C15.6310446,35.6504614 15.2157539,35.664587 14.7806875,35.8651695 C13.9331555,36.2522092 13.4274614,36.4259532 12.4852882,36.4923433 C12.0488092,36.6788003 11.6900207,36.9005712 11.3298196,37.1223421 C10.9117038,37.3808393 10.4794624,37.6478119 10.0076696,37.8286188 C8.12191083,38.5716218 6.90287725,39.3117998 5.86041285,41.0944422 C5.30104171,42.0676915 4.88292591,43.9463875 4.54815075,45.453582 C4.41960839,46.0327288 4.30095391,46.5624364 4.19077474,46.9791396 C3.93934024,47.9439136 3.86730002,48.9425888 3.7980849,49.9087753 L3.76135851,50.4088192 C3.76135851,52.8256981 14.1944778,54.2636774 24.2815216,54.2636774 C34.3756281,54.2636774 44.8158102,52.8256981 44.8158102,50.4201197 C44.9387024,49.0923195 44.7903843,46.1358452 44.6378285,45.3645911 L44.4895104,44.6060499 C43.7959467,41.4475805 42.8212848,39.4643556 41.5909508,38.707227 C41.0725437,38.3922276 40.4877466,38.204358 39.9213127,38.0221386 C39.4678831,37.8766456 39.0398794,37.7396279 38.6471896,37.543283 C37.6682901,37.0601897 36.6696148,36.7861544 35.7048409,36.5220069 C35.2471736,36.3962896 34.7739682,36.3058862 34.3007628,36.2168953 C33.5167957,36.0699898 32.7045775,35.917434 31.9756999,35.5798338 C30.814581,35.0345882 30.390815,34.1743431 30.5193574,32.6106465 C30.549021,32.3323735 30.4840435,31.8874192 30.4091782,31.3746623 C30.3032367,30.6443722 30.1704567,29.7375129 30.3738644,29.4324014 C30.5716218,29.1329401 30.827294,28.8603173 31.0999168,28.5707438 C31.3457011,28.3094215 31.5928979,28.0466865 31.7948931,27.7627633 C32.0872916,27.3630107 32.2624482,26.8657919 32.4319547,26.3841112 C32.5788602,25.9645828 32.7328285,25.5295164 32.9630747,25.1580149 C33.0690162,25.0520734 33.3910784,24.9094055 33.6481631,24.7949886 C33.7738804,24.7384865 33.8882972,24.6876346 33.9702253,24.6438454 L34.0479157,24.6028814 L34.0450906,24.5153031 C34.0126019,23.4615382 34.3276013,22.7368983 34.6920401,21.8992542 C34.9236988,21.3695467 35.1624204,20.821476 35.3291017,20.1420378 C35.5014332,19.4512992 35.524034,19.3623083 35.3418146,19.27473 C35.3220389,19.2662547 35.2725995,19.2422413 35.2189225,18.9950444 C35.0762546,18.3721084 35.1271065,17.5062131 35.1751333,16.6699815 C35.2358731,15.5978535 35.299438,14.4889991 34.9745508,13.7827224 C34.8121071,13.4281715 34.651076,13.0580825 34.4843947,12.6809308 C33.5436342,10.5281994 32.4771564,8.0887197 30.5758595,6.9431389 C30.3385505,6.79764591 29.0008625,6.20154838 28.7918046,6.13657092 C28.3722762,6.17329731 28.0318508,6.2100237 27.6716497,6.23827476 C27.6207978,6.20861114 27.5077935,6.11962028 27.3877265,6.02356665 C27.2224578,5.89078663 27.0331756,5.74105597 26.7902164,5.67607851 L23.6995496,5.79332045 C23.3633619,5.68314128 23.0850889,5.63228936 22.8463674,5.63228936 C22.518655,5.63228936 22.2827586,5.72975554 21.9536336,5.86394812 C21.832154,5.91480004 21.6965489,5.96988962 21.5355178,6.02921686 C21.4055629,6.07583112 21.2558322,6.09701942 21.0623124,6.09701942 C20.9168194,6.09701942 20.7699139,6.085719 20.6244209,6.07300602 C20.4746902,6.06594325 20.3277847,6.05323027 20.190767,6.05323027 L20.190767,6.05323027 L20.190767,6.05323027 Z" id="Path-2" fill="#B5AF9C" sketch:type="MSShapeGroup" mask="url(#mask-2)"></path>
                    </g>
                </g>
            </g>
        </g>
    </g>
</svg>