<svg xmlns="http://www.w3.org/2000/svg" version="1.2" baseProfile="tiny" x="0" y="0" width="66" height="66" viewBox="0 0 48 53"><path fill="#BBBDBF" d="M24 51.9c-12.8 0-23.2-1.9-23.2-4.3l1.2-8.2c0.2-1.6 2.1-3.6 3.4-4.2 0.4-0.2 1.4-0.5 2.6-0.9 4.8-1.5 9.5-3.1 10-4.3 0.7-1.6 0.2-5 0.2-5.2l-0.3-0.6c-0.7-1.1-1.5-2.4-1.9-3.7l0-0.1 -0.1 0 -0.1 0c-1.1 0-2.2-1.6-2.4-3.2 -0.2-1.3-0.2-2.2 0.2-2.7 0.2-0.2 0.4-0.3 0.7-0.3 0.1 0 0.2 0 0.2 0l0.1 0 0-0.1c0 0-0.2-2-0.4-3.4 0-0.1-1.1-4.9 2-6.4 0 0 0.6-0.5 1.4-0.5 0.2 0 0.4 0 0.6 0.1l0.1 0 0-0.1c0 0 1-2.6 4.5-2.6 0.3 0 0.7 0 1.1 0.1 0 0 2 0.4 3.7 0.4 0 0 1.5 0.1 2.1 0.6 0.1 0.1 1.4 1 2.8 1L32.5 3.4c0.1 0 0.2 0 0.2 0.1 0 0 0 0.1-0.3 0.4l-0.1 0.1 0.1 0.1c0 0 1.2 0.9 1.4 2.2 0 0.1 0.3 0.6 1.1 0.8 0.1 0 0.2 0.1 0.2 0.2 0 0.1-0.1 0.2-0.2 0.3 0 0.1-0.2 2.6-1.4 6.5l-0.1 0.2 0.2 0c0.1 0 0.1-0.1 0.2-0.3 0-0.1 0.1-0.1 0.1-0.2 0.2 0 0.4 0.1 0.6 0.3 0.4 0.5 0.5 1.6 0.2 3 -0.3 1.4-1.3 3.5-2.4 3.5 0 0-0.1 0-0.1 0l-0.1 0 0 0.1c-0.5 1.3-1.3 2.6-2 3.7l-0.3 0.5c0 0.2-0.6 3.6 0.1 5.2 0.5 1.1 5.2 2.7 10 4.3 1.3 0.4 2.3 0.7 2.6 0.9 1.3 0.6 3.1 2.6 3.4 4.2l1.2 8.2C47.2 50 36.8 51.9 24 51.9z"/></svg>