<?xml version="1.0" encoding="UTF-8"?>
<svg width="250px" height="125px" viewBox="0 0 250 125" version="1.1" xmlns="http://www.w3.org/2000/svg" xmlns:xlink="http://www.w3.org/1999/xlink">
    <!-- Generator: Sketch 46 (44423) - http://www.bohemiancoding.com/sketch -->
    <title>Group 4</title>
    <desc>Created with Sketch.</desc>
    <defs></defs>
    <g id="Main-Design" stroke="none" stroke-width="1" fill="none" fill-rule="evenodd">
        <g id="Artboard" transform="translate(-1767.000000, -1436.000000)">
            <g id="Group-4" transform="translate(1767.000000, 1436.000000)">
                <g id="Group-2-Copy" fill="#666662" fill-opacity="0.75">
                    <g id="Group-Copy">
                        <path d="M4,0 L245.003984,0 L245.003984,0 C247.213123,-4.05812251e-16 249.003984,1.790861 249.003984,4 L249.003984,125 L0,125 L0,4 L0,4 C-2.705415e-16,1.790861 1.790861,4.05812251e-16 4,0 Z" id="Rectangle-6"></path>
                    </g>
                </g>
                <g id="Group-3" transform="translate(100.000000, 33.000000)" fill-rule="nonzero">
                    <path d="M25.3670147,58.7210379 C10.4171388,58.7210379 0,56.4794752 0,54.4694089 L0.0378699117,53.9471305 C0.122348946,52.7557709 0.21265412,51.5220645 0.527265694,50.3476438 C0.66126692,49.8507734 0.806920427,49.218393 0.967139285,48.5239038 C1.38662138,46.6860483 1.91097401,44.3993155 2.58680628,43.2615954 C3.83651337,41.1724816 5.30178764,40.3114279 7.56524314,39.4560205 C8.19155322,39.2188778 8.75086268,38.8857489 9.30143294,38.5526199 C9.73839346,38.2900691 10.175354,38.0275183 10.6472713,37.82143 C11.795021,37.753675 12.4941578,37.5193555 13.5982114,37.0281314 C14.0730418,36.8163969 14.5333069,36.8051044 15.0663987,36.7909888 C15.3023574,36.7853425 15.5441422,36.7768731 15.7975793,36.7542881 C16.904546,36.6526555 17.1288524,36.1924859 17.4667685,35.4951735 L17.737684,34.9672488 C18.7543455,33.123747 18.8475638,29.6880017 18.2503844,28.0759963 L18.0406433,27.4887859 C17.6211612,26.311542 17.0501995,24.7023597 16.0481034,23.9598773 C15.8354492,23.7989591 15.6198821,23.6578028 15.410141,23.5222927 C14.6643951,23.0338918 14.1254771,22.6810009 14.1458686,21.7437228 C13.915736,21.4077707 13.8953445,21.2524987 13.8662138,20.9843017 C13.8458223,20.7528053 13.8196047,20.4930776 13.6768643,20.2192343 C13.5952983,20.0583161 13.4263402,19.900221 13.248643,19.7308334 C13.1292071,19.6150852 12.9777274,19.4711057 12.9369445,19.3920581 C12.7068119,18.9714123 12.5349408,18.6834533 12.4067657,18.4688957 C12.0571973,17.8929778 12.0571973,17.8929778 12.0717626,16.8399515 L12.0805018,10.8605689 C12.2611122,10.4540386 12.4795925,9.77084193 12.6776812,9.15257716 C12.8408132,8.65006059 12.9864667,8.18989091 13.1000764,7.90757823 L13.1175548,6.56376986 C14.1138248,4.55370357 17.402681,1.53578099 19.730224,0.590033506 C19.852573,0.536394096 20.0127918,0.513809082 20.2254459,0.513809082 C20.3885779,0.513809082 20.5546229,0.527924716 20.726494,0.539217223 C20.9187566,0.553332857 21.1139323,0.567448491 21.306195,0.567448491 C21.6091543,0.567448491 21.8567652,0.530747843 22.0781585,0.454523419 L22.6345549,0.242788907 C23.0132541,0.0931631852 23.2433866,0 23.5609112,0 C23.8114353,0 24.1143946,0.0564625365 24.5513551,0.180680117 L28.4810867,0.0536394096 C28.6150879,0.0988094388 28.7956983,0.237142653 28.9879609,0.386768375 C29.1656582,0.522278462 29.3433555,0.660611677 29.5560096,0.734012974 L31.0096316,0.612618521 C31.0911975,0.660611677 32.7458214,1.36639338 33.0429545,1.54142725 C35.30641,2.86547373 36.6085524,5.77047123 37.756302,8.33387038 C37.9689561,8.81380194 38.1816102,9.28244099 38.3942644,9.73414129 C38.752572,10.4963855 38.6768322,11.8006701 38.6040054,13.0597847 C38.5428309,14.1184572 38.4787434,15.2025379 38.668093,16.0297141 C38.7613112,16.4362444 38.8923994,16.6564483 39.0584444,16.6564483 C38.9535738,16.6564483 38.8690948,17.0093391 38.8137465,17.2210736 C38.6127446,18.0171954 38.3185245,18.6749839 38.0330437,19.3073643 C37.5931701,20.2954587 37.173688,21.2327368 37.1766011,22.5313752 C37.1096004,22.5624296 37.0309475,22.5963071 36.9493816,22.6330077 C36.5706825,22.7967491 36.1453742,22.9802523 35.929807,23.2061025 C35.5714994,23.7481428 35.3675845,24.3127682 35.1665827,24.8576317 C34.9568416,25.4363727 34.7558398,25.9840593 34.4295759,26.4159977 C34.184878,26.7491266 33.8848318,27.0540243 33.5935248,27.358922 C33.2439564,27.7231054 32.894388,28.0844656 32.6292986,28.4740571 C32.273904,28.9963356 32.4457752,30.1142938 32.605994,31.1955514 C32.6933861,31.7629999 32.7749521,32.299394 32.7487344,32.5873529 C32.5593849,34.7018749 33.1827819,35.9242888 34.849058,36.6780637 C35.8249365,37.1184715 36.8736418,37.3104441 37.8932163,37.4967705 C38.4729173,37.6040493 39.0497051,37.708505 39.6148408,37.8581307 C40.748025,38.1602053 42.032689,38.5046267 43.2387,39.0861909 C43.7543134,39.3318029 44.316536,39.5068368 44.8845846,39.6846938 C45.5778953,39.8992514 46.2945106,40.1222784 46.9033422,40.4864618 C48.3394858,41.3503386 49.4959746,43.6850645 50.3349388,47.4257075 L50.5301145,48.3516931 C50.7194641,49.2946175 50.9000745,52.8545804 50.7369425,54.4411777 C50.7427687,56.4794752 40.3198037,58.7210379 25.3670147,58.7210379 Z" id="Shape" fill="#FFFFFF"></path>
                    <path d="M24.0546389,58.3450488 C23.4691118,58.3450488 22.976803,58.1813074 22.5456686,57.8425322 C22.1290996,57.5178726 21.9193585,57.0520567 21.9193585,56.456377 C21.9193585,55.9284522 22.1232734,55.4823982 22.5311032,55.1238611 C22.9447592,54.7568546 23.4399811,54.5818208 24.0517259,54.5818208 C24.6430791,54.5818208 25.1441272,54.7625009 25.5373916,55.1238611 C25.9393953,55.4823982 26.1316579,55.9171597 26.1316579,56.456377 C26.1316579,57.0492336 25.9335692,57.5009339 25.5170001,57.836886 C25.0858657,58.1784843 24.6052092,58.3450488 24.0546389,58.3450488 Z M23.6905052,52.3713124 C23.1486741,52.3713124 22.7058874,52.2160405 22.3359275,51.8998503 C21.9776199,51.5949526 21.7970096,51.1206673 21.7970096,50.4939331 C21.7970096,49.6865188 21.9368369,48.9807371 22.2135786,48.399173 C22.4874072,47.8091395 22.8486279,47.2981535 23.3176322,46.8351607 C23.7837234,46.3806373 24.4158596,45.8357739 25.2053016,45.214686 C25.9073515,44.65853 26.4113127,44.2407072 26.7259242,43.9583945 C27.0463619,43.6676125 27.3201905,43.3429529 27.5328447,42.9928851 C27.7513249,42.6399943 27.8649347,42.2419334 27.8649347,41.809995 C27.8649347,40.9884651 27.5241055,40.2855065 26.8511862,39.7237043 C26.175354,39.1647252 25.3014329,38.8824125 24.2498146,38.8824125 C23.020499,38.8824125 22.0999689,39.1703714 21.5173548,39.7378199 C20.94348,40.2883296 20.4482581,41.1155058 20.0433413,42.1967634 C19.6908599,43.2667284 19.0412452,43.7861838 18.0566275,43.7861838 C17.4769266,43.7861838 16.9875308,43.5998574 16.5942663,43.235674 C16.1980888,42.8743138 16,42.4790761 16,42.0584302 C16,41.1550296 16.3262639,40.2205746 16.9758785,39.2804734 C17.6284062,38.3403721 18.5955455,37.5527198 19.8452526,36.934455 C21.0978727,36.3161902 22.5777124,36 24.2498146,36 C25.8083071,36 27.2036677,36.2625508 28.3922004,36.7820061 C29.5719938,37.2958152 30.5012631,38.00442 31.1508778,38.893705 C31.7917532,39.7716974 32.1121909,40.7400299 32.1121909,41.7761175 C32.1121909,42.5920011 31.9315806,43.3118985 31.5674468,43.9160476 C31.1945738,44.5399586 30.7517872,45.0791759 30.2507391,45.5195836 C29.7351257,45.9825764 28.8029432,46.7476438 27.465844,47.8317245 C27.0842319,48.1394453 26.7841856,48.4104655 26.5569662,48.6476082 C26.3384859,48.8734583 26.1607886,49.0993085 26.0442658,49.3025736 C25.9131777,49.5397162 25.8345248,49.7232195 25.7820895,49.9095459 C25.720915,50.0958722 25.6276968,50.4346474 25.5053478,50.9258715 C25.3130852,51.9026734 24.7188189,52.3713124 23.6905052,52.3713124 Z" id="Shape" fill="#666662"></path>
                </g>
            </g>
        </g>
    </g>
</svg>