{
  "accessors": [
    {
      "bufferView": 2,
      "componentType": 5126,
      "count": 65533,
      "max": [
        90,
        3.0750000476837158,
        90
      ],
      "min": [
        0,
        1.1749999523162842,
        0
      ],
      "type": "VEC3"
    },
    {
      "bufferView": 2,
      "byteOffset": 786396,
      "componentType": 5126,
      "count": 65533,
      "max": [
        1,
        1,
        0.99999386072158813
      ],
      "min": [
        -1,
        -1,
        -0.99987602233886719
      ],
      "type": "VEC3"
    },
    {
      "bufferView": 0,
      "componentType": 5125,
      "count": 68592,
      "max": [
        65532
      ],
      "min": [
        0
      ],
      "type": "SCALAR"
    },
    {
      "bufferView": 2,
      "byteOffset": 1572792,
      "componentType": 5126,
      "count": 8626,
      "max": [
        78.956069946289062,
        1.9749999046325684,
        79
      ],
      "min": [
        11,
        1.1749999523162842,
        11.149999618530273
      ],
      "type": "VEC3"
    },
    {
      "bufferView": 2,
      "byteOffset": 1676304,
      "componentType": 5126,
      "count": 8626,
      "max": [
        1,
        1,
        1
      ],
      "min": [
        -1,
        -1,
        -1
      ],
      "type": "VEC3"
    },
    {
      "bufferView": 0,
      "byteOffset": 274368,
      "componentType": 5125,
      "count": 9822,
      "max": [
        8625
      ],
      "min": [
        0
      ],
      "type": "SCALAR"
    },
    {
      "bufferView": 2,
      "byteOffset": 1779816,
      "componentType": 5126,
      "count": 2028,
      "max": [
        45.400001525878906,
        1.375,
        45.399665832519531
      ],
      "min": [
        44.599998474121094,
        0,
        44.599998474121094
      ],
      "type": "VEC3"
    },
    {
      "bufferView": 2,
      "byteOffset": 1804152,
      "componentType": 5126,
      "count": 2028,
      "max": [
        1,
        1,
        1
      ],
      "min": [
        -1,
        -1,
        -1
      ],
      "type": "VEC3"
    },
    {
      "bufferView": 0,
      "byteOffset": 313656,
      "componentType": 5125,
      "count": 4044,
      "max": [
        2027
      ],
      "min": [
        0
      ],
      "type": "SCALAR"
    },
    {
      "bufferView": 2,
      "byteOffset": 1828488,
      "componentType": 5126,
      "count": 1392,
      "max": [
        89.850006103515625,
        2.2750000953674316,
        89.584869384765625
      ],
      "min": [
        0.14999771118164062,
        2.1749999523162842,
        -0
      ],
      "type": "VEC3"
    },
    {
      "bufferView": 2,
      "byteOffset": 1845192,
      "componentType": 5126,
      "count": 1392,
      "max": [
        0.99871647357940674,
        1,
        1
      ],
      "min": [
        -0.99871647357940674,
        -1,
        -1
      ],
      "type": "VEC3"
    },
    {
      "bufferView": 1,
      "componentType": 5126,
      "count": 1392,
      "max": [
        17.940000534057617,
        17.936975479125977
      ],
      "min": [
        0,
        0
      ],
      "type": "VEC2"
    },
    {
      "bufferView": 3,
      "componentType": 5126,
      "count": 1392,
      "max": [
        1,
        0.70664507150650024,
        0.70666062831878662,
        1
      ],
      "min": [
        0.035837963223457336,
        -0.7066463828086853,
        -0.70666062831878662,
        -1
      ],
      "type": "VEC4"
    },
    {
      "bufferView": 0,
      "byteOffset": 329832,
      "componentType": 5125,
      "count": 2784,
      "max": [
        1391
      ],
      "min": [
        0
      ],
      "type": "SCALAR"
    },
    {
      "bufferView": 2,
      "byteOffset": 1861896,
      "componentType": 5126,
      "count": 5598,
      "max": [
        59.806282043457031,
        0.83000004291534424,
        68.553001403808594
      ],
      "min": [
        41.509757995605469,
        0.30002820491790771,
        32.596286773681641
      ],
      "type": "VEC3"
    },
    {
      "bufferView": 2,
      "byteOffset": 1929072,
      "componentType": 5126,
      "count": 5598,
      "max": [
        0.99999839067459106,
        0.99149405956268311,
        0.99999743700027466
      ],
      "min": [
        -0.99999839067459106,
        -0.99123549461364746,
        -0.99999761581420898
      ],
      "type": "VEC3"
    },
    {
      "bufferView": 1,
      "byteOffset": 11136,
      "componentType": 5126,
      "count": 5598,
      "max": [
        0.080348581075668335,
        0.24633403122425079
      ],
      "min": [
        0,
        0
      ],
      "type": "VEC2"
    },
    {
      "bufferView": 3,
      "byteOffset": 22272,
      "componentType": 5126,
      "count": 5598,
      "max": [
        0.99074727296829224,
        0.69488286972045898,
        0.69193565845489502,
        1
      ],
      "min": [
        -0.90919548273086548,
        -0.69488507509231567,
        -0.93211442232131958,
        -1
      ],
      "type": "VEC4"
    },
    {
      "bufferView": 0,
      "byteOffset": 340968,
      "componentType": 5125,
      "count": 6264,
      "max": [
        5597
      ],
      "min": [
        0
      ],
      "type": "SCALAR"
    }
  ],
  "asset": {
    "generator": "Sketchfab (OSG glTF plugin)",
    "version": "2.0"
  },
  "bufferViews": [
    {
      "buffer": 0,
      "byteLength": 366024,
      "byteOffset": 0,
      "name": "ScalarBufferView",
      "target": 34963
    },
    {
      "buffer": 0,
      "byteLength": 55920,
      "byteOffset": 366024,
      "byteStride": 8,
      "name": "Vec3BufferView",
      "target": 34962
    },
    {
      "buffer": 0,
      "byteLength": 1996248,
      "byteOffset": 421944,
      "byteStride": 12,
      "name": "Vec4BufferView",
      "target": 34962
    },
    {
      "buffer": 0,
      "byteLength": 111840,
      "byteOffset": 2418192,
      "byteStride": 16,
      "name": "MatrixBufferView",
      "target": 34962
    }
  ],
  "buffers": [
    {
      "byteLength": 2530032,
      "uri": "scene.bin"
    }
  ],
  "images": [
    {
      "uri": "textures/default_default_1_5_baseColor.png"
    },
    {
      "uri": "textures/default_default_1_3_baseColor.png"
    }
  ],
  "materials": [
    {
      "doubleSided": true,
      "emissiveFactor": [
        0,
        0,
        0
      ],
      "name": "default",
      "pbrMetallicRoughness": {
        "baseColorFactor": [
          0,
          0,
          0,
          1
        ],
        "metallicFactor": 0,
        "roughnessFactor": 0.71999999999999997
      }
    },
    {
      "doubleSided": true,
      "emissiveFactor": [
        0,
        0,
        0
      ],
      "name": "default_default_1_2",
      "pbrMetallicRoughness": {
        "baseColorFactor": [
          0.73333300000000001,
          0.73333300000000001,
          0.73333300000000001,
          1
        ],
        "metallicFactor": 0.94999999999999996,
        "roughnessFactor": 0.07999999999999996
      }
    },
    {
      "doubleSided": true,
      "emissiveFactor": [
        0,
        0,
        0
      ],
      "name": "default_default_1_3",
      "pbrMetallicRoughness": {
        "baseColorFactor": [
          1,
          1,
          1,
          1
        ],
        "baseColorTexture": {
          "index": 1,
          "texCoord": 0
        },
        "metallicFactor": 1,
        "roughnessFactor": 0.16000000000000003
      }
    },
    {
      "alphaCutoff": 0.5,
      "alphaMode": "BLEND",
      "doubleSided": true,
      "name": "default_default_1_5",
      "pbrMetallicRoughness": {
        "baseColorFactor": [
          0,
          0,
          0,
          1
        ],
        "baseColorTexture": {
          "index": 0,
          "texCoord": 0
        },
        "metallicFactor": 0,
        "roughnessFactor": 0.72999999999999998
      }
    }
  ],
  "meshes": [
    {
      "name": "default_1_1",
      "primitives": [
        {
          "attributes": {
            "NORMAL": 1,
            "POSITION": 0
          },
          "indices": 2,
          "material": 0,
          "mode": 4
        },
        {
          "attributes": {
            "NORMAL": 4,
            "POSITION": 3
          },
          "indices": 5,
          "material": 0,
          "mode": 4
        },
        {
          "attributes": {
            "NORMAL": 7,
            "POSITION": 6
          },
          "indices": 8,
          "material": 1,
          "mode": 4
        },
        {
          "attributes": {
            "NORMAL": 10,
            "POSITION": 9,
            "TANGENT": 12,
            "TEXCOORD_0": 11
          },
          "indices": 13,
          "material": 3,
          "mode": 4
        },
        {
          "attributes": {
            "NORMAL": 15,
            "POSITION": 14,
            "TANGENT": 17,
            "TEXCOORD_0": 16
          },
          "indices": 18,
          "material": 2,
          "mode": 4
        }
      ]
    }
  ],
  "nodes": [
    {
      "children": [
        1
      ],
      "name": "RootNode (gltf orientation matrix)",
      "rotation": [
        -0.70710678118654746,
        -0,
        -0,
        0.70710678118654757
      ]
    },
    {
      "children": [
        2
      ],
      "name": "RootNode (model correction matrix)"
    },
    {
      "children": [
        3
      ],
      "name": "Pendule.obj.cleaner.gles"
    },
    {
      "mesh": 0,
      "name": "default_1_1"
    }
  ],
  "samplers": [
    {
      "magFilter": 9729,
      "minFilter": 9987,
      "wrapS": 10497,
      "wrapT": 10497
    }
  ],
  "scene": 0,
  "scenes": [
    {
      "name": "OSG_Scene",
      "nodes": [
        0
      ]
    }
  ],
  "textures": [
    {
      "sampler": 0,
      "source": 0
    },
    {
      "sampler": 0,
      "source": 1
    }
  ]
}

