{
  "accessors": [
    {
      "bufferView": 1,
      "componentType": 5126,
      "count": 100,
      "max": [
        0.5,
        0.42912000417709351,
        1.6126799583435059
      ],
      "min": [
        -0.5,
        -0.19510999321937561,
        0.0019000000320374966
      ],
      "type": "VEC3"
    },
    {
      "bufferView": 1,
      "byteOffset": 1200,
      "componentType": 5126,
      "count": 100,
      "max": [
        1,
        0.98480755090713501,
        0.98480755090713501
      ],
      "min": [
        -1,
        -0.99254482984542847,
        -1
      ],
      "type": "VEC3"
    },
    {
      "bufferView": 2,
      "componentType": 5126,
      "count": 100,
      "max": [
        1,
        1,
        0.46491044759750366,
        1
      ],
      "min": [
        -1,
        -0.98555409908294678,
        -0.17364957928657532,
        1
      ],
      "type": "VEC4"
    },
    {
      "bufferView": 0,
      "componentType": 5125,
      "count": 174,
      "max": [
        99
      ],
      "min": [
        0
      ],
      "type": "SCALAR"
    },
    {
      "bufferView": 1,
      "byteOffset": 2400,
      "componentType": 5126,
      "count": 12,
      "max": [
        0.44999998807907104,
        0.12620000541210175,
        1.5243300199508667
      ],
      "min": [
        -0.44999998807907104,
        -0.17246000468730927,
        0.090250000357627869
      ],
      "type": "VEC3"
    },
    {
      "bufferView": 1,
      "byteOffset": 2544,
      "componentType": 5126,
      "count": 12,
      "max": [
        -0,
        0.98480755090713501,
        0.17364956438541412
      ],
      "min": [
        -0,
        -0.98480755090713501,
        -0.17364956438541412
      ],
      "type": "VEC3"
    },
    {
      "bufferView": 2,
      "byteOffset": 1600,
      "componentType": 5126,
      "count": 12,
      "max": [
        1,
        0,
        0,
        1
      ],
      "min": [
        -1,
        -1.1846066627185792e-05,
        -6.7181834310758859e-05,
        1
      ],
      "type": "VEC4"
    },
    {
      "bufferView": 0,
      "byteOffset": 696,
      "componentType": 5125,
      "count": 30,
      "max": [
        11
      ],
      "min": [
        0
      ],
      "type": "SCALAR"
    }
  ],
  "asset": {
    "generator": "Sketchfab (OSG glTF plugin)",
    "version": "2.0"
  },
  "bufferViews": [
    {
      "buffer": 0,
      "byteLength": 816,
      "byteOffset": 0,
      "name": "ScalarBufferView",
      "target": 34963
    },
    {
      "buffer": 0,
      "byteLength": 2688,
      "byteOffset": 816,
      "byteStride": 12,
      "name": "Vec4BufferView",
      "target": 34962
    },
    {
      "buffer": 0,
      "byteLength": 1792,
      "byteOffset": 3504,
      "byteStride": 16,
      "name": "MatrixBufferView",
      "target": 34962
    }
  ],
  "buffers": [
    {
      "byteLength": 5296,
      "uri": "scene.bin"
    }
  ],
  "materials": [
    {
      "doubleSided": true,
      "emissiveFactor": [
        0,
        0,
        0
      ],
      "name": "Frame",
      "pbrMetallicRoughness": {
        "baseColorFactor": [
          0.30808240180000002,
          0.069183230400000004,
          0.0085589411000000001,
          1
        ],
        "metallicFactor": 0,
        "roughnessFactor": 0.59999999999999998
      }
    },
    {
      "doubleSided": false,
      "emissiveFactor": [
        0,
        0,
        0
      ],
      "name": "Inner Stuff",
      "pbrMetallicRoughness": {
        "baseColorFactor": [
          0.80000007149999997,
          0.71272754670000005,
          0.64754319189999998,
          1
        ],
        "metallicFactor": 0,
        "roughnessFactor": 0.59999999999999998
      }
    }
  ],
  "meshes": [
    {
      "name": "GeodeCube",
      "primitives": [
        {
          "attributes": {
            "NORMAL": 1,
            "POSITION": 0,
            "TANGENT": 2
          },
          "indices": 3,
          "material": 0,
          "mode": 4
        },
        {
          "attributes": {
            "NORMAL": 5,
            "POSITION": 4,
            "TANGENT": 6
          },
          "indices": 7,
          "material": 1,
          "mode": 4
        }
      ]
    }
  ],
  "nodes": [
    {
      "children": [
        1
      ],
      "name": "RootNode (gltf orientation matrix)",
      "rotation": [
        -0.70710678118654746,
        -0,
        -0,
        0.70710678118654757
      ]
    },
    {
      "children": [
        2
      ],
      "name": "RootNode (model correction matrix)"
    },
    {
      "children": [
        3
      ],
      "name": "Root"
    },
    {
      "children": [
        4
      ],
      "name": "Model"
    },
    {
      "mesh": 0,
      "name": "GeodeCube"
    }
  ],
  "scene": 0,
  "scenes": [
    {
      "name": "OSG_Scene",
      "nodes": [
        0
      ]
    }
  ]
}

