{
  "accessors": [
    {
      "bufferView": 1,
      "componentType": 5126,
      "count": 4101,
      "max": [
        95.947555541992188,
        27.803817749023438,
        263.17727661132812
      ],
      "min": [
        -99.949905395507812,
        -27.433137893676758,
        60.282238006591797
      ],
      "type": "VEC3"
    },
    {
      "bufferView": 1,
      "byteOffset": 49212,
      "componentType": 5126,
      "count": 4101,
      "max": [
        1,
        0.99998563528060913,
        1
      ],
      "min": [
        -1,
        -0.99998563528060913,
        -1
      ],
      "type": "VEC3"
    },
    {
      "bufferView": 2,
      "componentType": 5126,
      "count": 4101,
      "max": [
        1,
        0.99999964237213135,
        1,
        1
      ],
      "min": [
        -1,
        -0.99999964237213135,
        -1,
        -1
      ],
      "type": "VEC4"
    },
    {
      "bufferView": 0,
      "componentType": 5125,
      "count": 13407,
      "max": [
        4100
      ],
      "min": [
        0
      ],
      "type": "SCALAR"
    },
    {
      "bufferView": 1,
      "byteOffset": 98424,
      "componentType": 5126,
      "count": 4603,
      "max": [
        99.949905395507812,
        39,
        313.5517578125
      ],
      "min": [
        -54.415966033935547,
        -39,
        0
      ],
      "type": "VEC3"
    },
    {
      "bufferView": 1,
      "byteOffset": 153660,
      "componentType": 5126,
      "count": 4603,
      "max": [
        1,
        0.99998998641967773,
        1
      ],
      "min": [
        -1,
        -0.99999696016311646,
        -1
      ],
      "type": "VEC3"
    },
    {
      "bufferView": 2,
      "byteOffset": 65616,
      "componentType": 5126,
      "count": 4603,
      "max": [
        1,
        1,
        1,
        1
      ],
      "min": [
        -1,
        -1,
        -1,
        -1
      ],
      "type": "VEC4"
    },
    {
      "bufferView": 0,
      "byteOffset": 53628,
      "componentType": 5125,
      "count": 10428,
      "max": [
        4602
      ],
      "min": [
        0
      ],
      "type": "SCALAR"
    }
  ],
  "asset": {
    "generator": "Sketchfab (OSG glTF plugin)",
    "version": "2.0"
  },
  "bufferViews": [
    {
      "buffer": 0,
      "byteLength": 95340,
      "byteOffset": 0,
      "name": "ScalarBufferView",
      "target": 34963
    },
    {
      "buffer": 0,
      "byteLength": 208896,
      "byteOffset": 95340,
      "byteStride": 12,
      "name": "Vec4BufferView",
      "target": 34962
    },
    {
      "buffer": 0,
      "byteLength": 139264,
      "byteOffset": 304236,
      "byteStride": 16,
      "name": "MatrixBufferView",
      "target": 34962
    }
  ],
  "buffers": [
    {
      "byteLength": 443500,
      "uri": "scene.bin"
    }
  ],
  "extensionsRequired": [
    "KHR_materials_pbrSpecularGlossiness"
  ],
  "extensionsUsed": [
    "KHR_materials_pbrSpecularGlossiness"
  ],
  "materials": [
    {
      "doubleSided": true,
      "emissiveFactor": [
        0,
        0,
        0
      ],
      "extensions": {
        "KHR_materials_pbrSpecularGlossiness": {
          "diffuseFactor": [
            0.5,
            0.5,
            0.5,
            1
          ],
          "glossinessFactor": 0,
          "specularFactor": [
            0,
            0,
            0
          ]
        }
      },
      "name": "Scene - Root",
      "occlusionFactor": 1
    }
  ],
  "meshes": [
    {
      "name": "Legoman T_te",
      "primitives": [
        {
          "attributes": {
            "NORMAL": 1,
            "POSITION": 0,
            "TANGENT": 2
          },
          "indices": 3,
          "material": 0,
          "mode": 4
        },
        {
          "attributes": {
            "NORMAL": 5,
            "POSITION": 4,
            "TANGENT": 6
          },
          "indices": 7,
          "material": 0,
          "mode": 4
        }
      ]
    }
  ],
  "nodes": [
    {
      "children": [
        1
      ],
      "name": "RootNode (gltf orientation matrix)",
      "rotation": [
        -0.70710678118654746,
        -0,
        -0,
        0.70710678118654757
      ]
    },
    {
      "children": [
        2
      ],
      "name": "RootNode (model correction matrix)"
    },
    {
      "children": [
        3
      ],
      "name": "1f29c6eeeeb34d0083581d55dc11c7e4.obj.cleaner"
    },
    {
      "mesh": 0,
      "name": "Legoman T_te"
    }
  ],
  "scene": 0,
  "scenes": [
    {
      "name": "OSG_Scene",
      "nodes": [
        0
      ]
    }
  ]
}

