{
  "accessors": [
    {
      "bufferView": 1,
      "componentType": 5126,
      "count": 4102,
      "max": [
        13.10420036315918,
        17.498899459838867,
        12.619999885559082
      ],
      "min": [
        10.5,
        16.299999237060547,
        7.4980101585388184
      ],
      "type": "VEC3"
    },
    {
      "bufferView": 1,
      "byteOffset": 49224,
      "componentType": 5126,
      "count": 4102,
      "max": [
        1,
        1,
        1
      ],
      "min": [
        -1,
        -1,
        -1
      ],
      "type": "VEC3"
    },
    {
      "bufferView": 2,
      "componentType": 5126,
      "count": 4102,
      "max": [
        1,
        1,
        1,
        1
      ],
      "min": [
        -1,
        -1,
        -1,
        -1
      ],
      "type": "VEC4"
    },
    {
      "bufferView": 0,
      "componentType": 5125,
      "count": 9969,
      "max": [
        4101
      ],
      "min": [
        0
      ],
      "type": "SCALAR"
    },
    {
      "bufferView": 1,
      "byteOffset": 98448,
      "componentType": 5126,
      "count": 3246,
      "max": [
        11.400400161743164,
        17.399999618530273,
        11.339300155639648
      ],
      "min": [
        9.8978099822998047,
        16.299999237060547,
        7.4980101585388184
      ],
      "type": "VEC3"
    },
    {
      "bufferView": 1,
      "byteOffset": 137400,
      "componentType": 5126,
      "count": 3246,
      "max": [
        1,
        1,
        1
      ],
      "min": [
        -1,
        -1,
        -1
      ],
      "type": "VEC3"
    },
    {
      "bufferView": 2,
      "byteOffset": 65632,
      "componentType": 5126,
      "count": 3246,
      "max": [
        1,
        1,
        0.87056320905685425,
        1
      ],
      "min": [
        -1,
        -1,
        -0.93580257892608643,
        -1
      ],
      "type": "VEC4"
    },
    {
      "bufferView": 0,
      "byteOffset": 39876,
      "componentType": 5125,
      "count": 6465,
      "max": [
        3245
      ],
      "min": [
        0
      ],
      "type": "SCALAR"
    }
  ],
  "asset": {
    "generator": "Sketchfab (OSG glTF plugin)",
    "version": "2.0"
  },
  "bufferViews": [
    {
      "buffer": 0,
      "byteLength": 65736,
      "byteOffset": 0,
      "name": "ScalarBufferView",
      "target": 34963
    },
    {
      "buffer": 0,
      "byteLength": 176352,
      "byteOffset": 65736,
      "byteStride": 12,
      "name": "Vec4BufferView",
      "target": 34962
    },
    {
      "buffer": 0,
      "byteLength": 117568,
      "byteOffset": 242088,
      "byteStride": 16,
      "name": "MatrixBufferView",
      "target": 34962
    }
  ],
  "buffers": [
    {
      "byteLength": 359656,
      "uri": "scene.bin"
    }
  ],
  "extensionsRequired": [
    "KHR_materials_pbrSpecularGlossiness"
  ],
  "extensionsUsed": [
    "KHR_materials_pbrSpecularGlossiness"
  ],
  "materials": [
    {
      "doubleSided": true,
      "emissiveFactor": [
        0,
        0,
        0
      ],
      "extensions": {
        "KHR_materials_pbrSpecularGlossiness": {
          "diffuseFactor": [
            0.5,
            0.5,
            0.5,
            1
          ],
          "glossinessFactor": 0,
          "specularFactor": [
            0,
            0,
            0
          ]
        }
      },
      "name": "Part31Mtl",
      "occlusionFactor": 1
    }
  ],
  "meshes": [
    {
      "name": "Leftarm1",
      "primitives": [
        {
          "attributes": {
            "NORMAL": 1,
            "POSITION": 0,
            "TANGENT": 2
          },
          "indices": 3,
          "material": 0,
          "mode": 4
        },
        {
          "attributes": {
            "NORMAL": 5,
            "POSITION": 4,
            "TANGENT": 6
          },
          "indices": 7,
          "material": 0,
          "mode": 4
        }
      ]
    }
  ],
  "nodes": [
    {
      "children": [
        1
      ],
      "name": "RootNode (gltf orientation matrix)",
      "rotation": [
        -0.70710678118654746,
        -0,
        -0,
        0.70710678118654757
      ]
    },
    {
      "children": [
        2
      ],
      "name": "RootNode (model correction matrix)"
    },
    {
      "children": [
        3
      ],
      "name": "e0e41a5807cc486bbbacb4cdc675469d.obj.cleaner"
    },
    {
      "mesh": 0,
      "name": "Leftarm1"
    }
  ],
  "scene": 0,
  "scenes": [
    {
      "name": "OSG_Scene",
      "nodes": [
        0
      ]
    }
  ]
}

